<?xml version="1.0" encoding="UTF-8" standalone="no"?>
<svg
   xmlns:dc="http://purl.org/dc/elements/1.1/"
   xmlns:cc="http://creativecommons.org/ns#"
   xmlns:rdf="http://www.w3.org/1999/02/22-rdf-syntax-ns#"
   xmlns:svg="http://www.w3.org/2000/svg"
   xmlns="http://www.w3.org/2000/svg"
   xmlns:sodipodi="http://sodipodi.sourceforge.net/DTD/sodipodi-0.dtd"
   xmlns:inkscape="http://www.inkscape.org/namespaces/inkscape"
   height="57.140999"
   width="56.653309"
   id="svg5204"
   version="1.1"
   inkscape:version="0.91 r13725"
   sodipodi:docname="club.svg">
  <metadata
     id="metadata5216">
    <rdf:RDF>
      <cc:Work
         rdf:about="">
        <dc:format>image/svg+xml</dc:format>
        <dc:type
           rdf:resource="http://purl.org/dc/dcmitype/StillImage" />
        <dc:title></dc:title>
      </cc:Work>
    </rdf:RDF>
  </metadata>
  <defs
     id="defs5214" />
  <sodipodi:namedview
     pagecolor="#ffffff"
     bordercolor="#666666"
     borderopacity="1"
     objecttolerance="10"
     gridtolerance="10"
     guidetolerance="10"
     inkscape:pageopacity="0"
     inkscape:pageshadow="2"
     inkscape:window-width="640"
     inkscape:window-height="480"
     id="namedview5212"
     showgrid="false"
     inkscape:zoom="0.75445637"
     inkscape:cx="28.326298"
     inkscape:cy="28.569993"
     inkscape:window-x="0"
     inkscape:window-y="0"
     inkscape:window-maximized="0"
     inkscape:current-layer="svg5204"
     fit-margin-top="0"
     fit-margin-left="0"
     fit-margin-right="0"
     fit-margin-bottom="0" />
  <path
     d="m 20.975795,57.141 c 2.879,-5.775 4.976,-11.7 5.348,-18.037 0.341,-2.332 -1.075,-2.37 -1.288,-0.728 -4.077,15.592 -25.76299992,11.37 -25.01699992,-3.297 0.605,-11.895 12.41899992,-14.454 18.58199992,-10.564 2.433,1.432 2.296,0.574 0.968,-0.912 -9.155,-10.212 -3.61,-23.362 8.76,-23.603 13.38,0.794 16.852,14.87 8.645,23.149 -1.02,0.994 -3.283,4.191 0.123,1.956 8.287,-5.888 19.787,0.443 19.553,9.52 -0.433,16.74 -20.84,17.988 -25.203,4.006 -0.42,-1.55 -1.63,-2.328 -1.295,0.305 0.605,4.766 1.856,11.953 5.437,18.205 z"
     id="path5210"
     inkscape:connector-curvature="0"
     sodipodi:nodetypes="cccscccccccccc" />
</svg>
