<?xml version="1.0" encoding="UTF-8" standalone="no"?>
<!-- Generator: Adobe Illustrator 25.2.3, SVG Export Plug-In . SVG Version: 6.00 Build 0)  -->

<svg
   version="1.1"
   id="Layer_2"
   x="0px"
   y="0px"
   viewBox="0 0 128 128"
   style="enable-background:new 0 0 128 128;"
   xml:space="preserve"
   sodipodi:docname="diamond.svg"
   inkscape:version="1.1.2 (0a00cf5339, 2022-02-04)"
   xmlns:inkscape="http://www.inkscape.org/namespaces/inkscape"
   xmlns:sodipodi="http://sodipodi.sourceforge.net/DTD/sodipodi-0.dtd"
   xmlns="http://www.w3.org/2000/svg"
   xmlns:svg="http://www.w3.org/2000/svg"><defs
   id="defs9" /><sodipodi:namedview
   id="namedview7"
   pagecolor="#ffffff"
   bordercolor="#666666"
   borderopacity="1.0"
   inkscape:pageshadow="2"
   inkscape:pageopacity="0.0"
   inkscape:pagecheckerboard="0"
   showgrid="false"
   inkscape:zoom="8.3203125"
   inkscape:cx="63.939906"
   inkscape:cy="63.939906"
   inkscape:window-width="3840"
   inkscape:window-height="2091"
   inkscape:window-x="1920"
   inkscape:window-y="32"
   inkscape:window-maximized="1"
   inkscape:current-layer="Layer_2" />
<path
   style="fill:#cc3333;fill-opacity:1"
   d="M20.99,59.62c0,0-1.58,1.66-1.5,3.93c0.09,2.87,1.92,4.12,3.83,6.99  c1.92,2.87,34.64,49.1,36.06,50.58c1.63,1.7,2.28,3.07,4.7,3.02c2.4-0.04,3.64-1.71,4.5-2.76c0.86-1.05,36.85-51.51,39.05-54.67  c1.37-1.97,1.15-3.55,1.05-4.41c-0.1-0.86-1.53-2.68-1.53-2.68L20.99,59.62z"
   id="path2" />
<path
   style="fill:#f44336;fill-opacity:1"
   d="M20.93,59.68l43.21,58.38l43.01-58.44c0,0-37.07-51.96-38.03-53.43c-0.95-1.47-2.6-3.3-4.86-3.3  c-2.17,0-3.9,1.56-5.47,3.73C57.79,8.04,20.93,59.68,20.93,59.68z"
   id="path4" />
</svg>
