<?xml version="1.0" encoding="UTF-8" standalone="no"?>
<svg xmlns:rdf="http://www.w3.org/1999/02/22-rdf-syntax-ns#" xmlns="http://www.w3.org/2000/svg" height="72" width="72" version="1.1" xmlns:cc="http://creativecommons.org/ns#" xmlns:dc="http://purl.org/dc/elements/1.1/" viewBox="0 0 72.000001 72.000001">
 <g transform="translate(0 -980.36)">
  <g transform="matrix(.72172 0 0 1 10.383 979.86)">
   <polygon points="12 16 12 58 59.847 57.85 59.847 12.15 15.669 12.15" fill="#fff"/>
   <path fill="#d22f27" stroke-miterlimit="10" d="m55.002 61h-43.003c-0.552 0-0.999-0.447-0.999-0.998v-43.003c0-0.552 0.447-0.999 0.998-0.999h43.003c0.552 0 0.999 0.447 0.999 0.998v43.003c0 0.552-0.447 0.999-0.998 0.999z"/>
   <g stroke-linejoin="round" stroke="#000" stroke-linecap="round" stroke-miterlimit="10" stroke-width="2.3542" fill="none">
    <path d="m11 17 4.9985-5h43.003c0.552 0 0.999 0.447 0.999 0.998v43.003c0 0.552-0.447 0.999-0.998 0.999"/>
    <path d="m55.002 61h-43.003c-0.552 0-0.999-0.447-0.999-0.998v-43.003c0-0.552 0.447-0.999 0.998-0.999h43.003c0.552 0 0.999 0.447 0.999 0.998v43.003c0 0.552-0.447 0.999-0.998 0.999z"/>
   </g>
  </g>
 </g>
</svg>
