<?xml version="1.0" encoding="UTF-8" standalone="no"?>
<!-- Generator: Adobe Illustrator 24.1.2, SVG Export Plug-In . SVG Version: 6.00 Build 0)  -->

<svg
   version="1.1"
   id="Layer_2"
   x="0px"
   y="0px"
   viewBox="0 0 128 128"
   style="enable-background:new 0 0 128 128;"
   xml:space="preserve"
   sodipodi:docname="heart.svg"
   inkscape:version="1.1.2 (0a00cf5339, 2022-02-04)"
   xmlns:inkscape="http://www.inkscape.org/namespaces/inkscape"
   xmlns:sodipodi="http://sodipodi.sourceforge.net/DTD/sodipodi-0.dtd"
   xmlns="http://www.w3.org/2000/svg"
   xmlns:svg="http://www.w3.org/2000/svg"><defs
   id="defs25" /><sodipodi:namedview
   id="namedview23"
   pagecolor="#ffffff"
   bordercolor="#666666"
   borderopacity="1.0"
   inkscape:pageshadow="2"
   inkscape:pageopacity="0.0"
   inkscape:pagecheckerboard="0"
   showgrid="false"
   inkscape:zoom="8.3203125"
   inkscape:cx="63.939906"
   inkscape:cy="56.848826"
   inkscape:window-width="1920"
   inkscape:window-height="1043"
   inkscape:window-x="0"
   inkscape:window-y="374"
   inkscape:window-maximized="1"
   inkscape:current-layer="Layer_2" />
<g
   id="g20">
	<path
   style="fill:#F44336;"
   d="M93.99,8.97c-21.91,0-29.96,22.39-29.96,22.39S56.09,8.97,34.03,8.97   c-16.58,0-35.48,13.14-28.5,43.01c6.98,29.87,58.56,67.08,58.56,67.08s51.39-37.21,58.38-67.08   C129.45,22.11,111.91,8.97,93.99,8.97z"
   id="path2" />
	<g
   id="g8">
		<path
   style="fill:#CC3333;"
   d="M30.65,11.2c17.2,0,25.74,18.49,28.5,25.98c0.39,1.07,1.88,1.1,2.33,0.06L64,31.35    C60.45,20.01,50.69,8.97,34.03,8.97c-6.9,0-14.19,2.28-19.86,7.09C19.18,12.77,25.05,11.2,30.65,11.2z"
   id="path4" />
		<path
   style="fill:#CC3333;"
   d="M93.99,8.97c-5.29,0-10.11,1.15-13.87,3.47c2.64-1.02,5.91-1.24,9.15-1.24    c16.21,0,30.72,12.29,24.17,40.7c-5.62,24.39-38.46,53.98-48.49,65.27c-0.64,0.72-0.86,1.88-0.86,1.88s51.39-37.21,58.38-67.08    C129.45,22.11,111.94,8.97,93.99,8.97z"
   id="path6" />
	</g>
	<g
   id="g16">
		<g
   id="g14">
			<g
   id="g12">
				
			</g>
		</g>
	</g>
	
</g>
</svg>
