<?xml version="1.0" encoding="UTF-8"?>
<svg width="50" height="50" version="1.1" viewBox="0 0 13.229 13.229" xmlns="http://www.w3.org/2000/svg"><g transform="translate(0 -283.77)" stroke-width=".1831"><path d="m3.4396 293.56c1.1848 0 2.8036-0.68499 5.3599-0.74487v-1.4524l2.1973 2.1972-2.1973 2.1973v-1.4213c-3.0611 0.0798-4.1714-0.776-5.3599-0.776z"/><path d="m11.418 290.39c-0.27529-1.1459-0.01678-3.1942-2.5731-3.1344v1.4524l-2.1973-2.1972 2.1973-2.1973v1.4213c3.0611-0.0798 3.3359 2.82 2.5731 4.6552z"/><path d="m4.907 286.56c-1.6935 0-1.7536 1.2156-1.7715 3.234h1.4524l-2.1972 2.1972-2.1973-2.1972h1.4213c0.00288-2.0183 1.4737-4.0795 3.2924-3.234z"/></g></svg>
