<?xml version="1.0" encoding="UTF-8"?>
<svg width="24mm" height="24mm" version="1.1" viewBox="0 0 24 24" xmlns="http://www.w3.org/2000/svg"><g transform="translate(0 -273)"><path d="m8.8443 295.91v-0.8838h0.81246v-1.4571h-4.0623v-1.0281l4.3954-6.631 0.71847 2e-3v6.6285h1.2424v1.0278h-1.2424l-0.02389 1.4574h0.68076v0.88412zm0.81246-7.5736-2.7907 4.2044h2.791z" stroke-width=".3143"/><g transform="matrix(.30539 0 0 .30539 -1910.2 1129.8)" fill="#d40000"><path d="m6258.7-2769.4 0.164-2.019c0.51-6.239 1.874-8.346 9.622-14.855 3.76-3.159 4.994-4.718 5.168-6.526 0.49-4.26-3.351-5.591-5.855-5.614-3.242-0.03-6.91 1.911-5.161 6.414l-3.637 1.068c-0.734-4.2 0.017-8.142 3.426-9.893 4.546-2.28 10.38-1.385 13.323 2.207 1.978 2.414 2.428 5.746 1.368 8.356-3.1 6.671-13.621 9.606-14.49 17.319h11.63v-4.295h3.426v7.907z"/></g><rect x=".1194" y="273.12" width="23.761" height="23.761" fill="none" stroke="#808080" stroke-width=".23881"/><g transform="matrix(.30788 0 0 .30788 -1956.1 1102.9)" fill="#d40000"><path d="m6391.1-2666.7 2.547-1.84c2.214 3.534 4.685 5.863 8.465 5.463 5.674-0.382 8.023-6.22 6.836-10.623-1.147-3.945-5.846-5.87-9.579-3.763-0.88 0.497-1.898 1.11-1.898 1.11l-1.329-2.166 8.764-10.194h-9.51v4.22h-3.65v-7.566h18.59v2.568s-4.98 5.069-6.628 7.847c4.055 0.148 7.323 2.669 8.492 6.658 0.687 2.099 0.378 6.902-0.516 8.968-1.494 3.452-5.584 6.25-9.322 6.412-6.27 0.414-9.602-3.902-11.262-7.094z"/></g><path d="m16.492 293.32 0.99865-8e-3c0.1898 0.60291 0.61159 1.2176 1.1838 1.3872 1.6164 0.37961 2.657-0.5232 2.9997-1.565 0.41559-1.2635-0.0093-3.0381-1.1218-3.6683-0.92298-0.52289-2.2935-0.0819-2.9221 1.0356l-0.69998-0.42799 0.37527-4.1627h4.5687v0.98375h-3.7021l-0.0583 1.7337c0.79582-0.55857 2.0215-0.55329 2.8179-0.16097 1.5088 0.71922 2.2094 2.3549 1.9157 4.283-0.40628 1.9179-1.3017 3.0043-3.3238 3.1603-2.247 0.0196-3.0406-1.525-3.0316-2.5897z" stroke-width=".31014"/></g></svg>
