<?xml version="1.0" encoding="UTF-8" standalone="no"?>
<svg
   xmlns:dc="http://purl.org/dc/elements/1.1/"
   xmlns:cc="http://creativecommons.org/ns#"
   xmlns:rdf="http://www.w3.org/1999/02/22-rdf-syntax-ns#"
   xmlns:svg="http://www.w3.org/2000/svg"
   xmlns="http://www.w3.org/2000/svg"
   xmlns:sodipodi="http://sodipodi.sourceforge.net/DTD/sodipodi-0.dtd"
   xmlns:inkscape="http://www.inkscape.org/namespaces/inkscape"
   width="24"
   height="64"
   id="svg2"
   version="1.1"
   inkscape:version="0.91 r13725"
   sodipodi:docname="10C.svg">
  <metadata
     id="metadata16">
    <rdf:RDF>
      <cc:Work
         rdf:about="">
        <dc:format>image/svg+xml</dc:format>
        <dc:type
           rdf:resource="http://purl.org/dc/dcmitype/StillImage" />
        <dc:title></dc:title>
      </cc:Work>
    </rdf:RDF>
  </metadata>
  <defs
     id="defs14" />
  <sodipodi:namedview
     pagecolor="#ffffff"
     bordercolor="#666666"
     borderopacity="1"
     objecttolerance="10"
     gridtolerance="10"
     guidetolerance="10"
     inkscape:pageopacity="0"
     inkscape:pageshadow="2"
     inkscape:window-width="1680"
     inkscape:window-height="1024"
     id="namedview12"
     showgrid="false"
     fit-margin-top="0"
     fit-margin-left="0"
     fit-margin-right="0"
     fit-margin-bottom="0"
     inkscape:zoom="8.5356995"
     inkscape:cx="-42.683717"
     inkscape:cy="39.351568"
     inkscape:window-x="0"
     inkscape:window-y="0"
     inkscape:window-maximized="1"
     inkscape:current-layer="svg2"
     inkscape:snap-bbox="true"
     inkscape:bbox-paths="true"
     inkscape:bbox-nodes="true"
     inkscape:snap-bbox-edge-midpoints="true"
     inkscape:snap-bbox-midpoints="true" />
  <rect
     style="opacity:1;fill:#ffffff;fill-opacity:1;fill-rule:evenodd;stroke:none;stroke-width:1;stroke-linecap:round;stroke-linejoin:round;stroke-miterlimit:4;stroke-dasharray:none;stroke-opacity:1"
     id="rect4147"
     width="24"
     height="64"
     x="0"
     y="0" />
  <path
     d="m 8.4957214,60.288757 c 1.0334588,-2.063064 2.0383276,-3.983529 2.5858096,-6.244883 0.362968,-2.133098 -0.380291,-1.340782 -0.801297,0.05738 -0.6254454,1.939027 -2.3588483,2.82163 -3.9675083,2.842726 -2.921057,0.03797 -4.3772546,-2.197227 -4.2862963,-4.602026 -0.3187863,-2.52968 2.3129366,-4.3202 4.2975576,-4.182664 1.4925807,0.103783 2.792849,0.887668 3.5802877,1.497728 0.5171603,0.266637 1.0689733,0.383924 0.2988593,-0.302078 -1.4527297,-1.546665 -2.6646391,-2.500991 -2.6386508,-4.818037 0.025984,-2.176975 1.9352437,-4.445924 4.4664788,-4.375045 3.162746,0.08944 4.601619,2.438551 4.593821,4.624808 -0.0086,1.593073 -0.82642,3.059579 -2.08944,3.968341 -0.817757,0.646342 -0.588195,1.130677 0.344776,0.518087 0.896587,-0.752662 1.96383,-1.08174 3.070921,-1.105366 3.023277,-0.04556 4.205732,2.499305 4.032479,4.864446 -0.161992,2.214945 -2.098968,4.495709 -4.650994,4.237508 -2.278287,-0.254825 -3.476336,-2.11791 -4.162419,-4.030781 -0.226963,-0.586434 -0.585598,-0.745064 -0.57607,0.1291 0.526691,4.267886 2.158741,6.92329 2.17087,6.920758 z"
     id="path8"
     inkscape:connector-curvature="0"
     sodipodi:nodetypes="cccccccccccccccccccc" />
  <path
     style="fill:#000000;fill-opacity:1"
     sodipodi:nodetypes="cccccssssssssscssssscc"
     d="m 2.000002,34 0,-31.9999999 3.192855,0 0,31.9999999 z M 14.65849,2.0000001 c -3.074791,0 -5.545917,2.7281153 -5.545917,6.1164222 l 0,19.7671557 C 9.112573,31.271885 11.583699,34 14.65849,34 l 1.791489,0 c 3.073764,0 5.550023,-2.728115 5.550023,-6.116422 l 0,-19.7671557 c 0,-3.3883069 -2.476259,-6.1164222 -5.550023,-6.1164222 z m 0.923977,3.0246937 c 1.817155,0 3.277039,1.3579636 3.277039,3.0480543 l 0,20.0322479 c 0,1.691106 -1.46091,3.053133 -3.276012,3.053133 -1.816129,0 -3.27704,-1.362027 -3.27704,-3.053133 l 0,-20.0322479 c 0,-1.6900907 1.460911,-3.0480543 3.27704,-3.0480543 z"
     id="path10"
     inkscape:connector-curvature="0" />
</svg>
