<?xml version="1.0" encoding="UTF-8" standalone="no"?>
<svg
   xmlns:dc="http://purl.org/dc/elements/1.1/"
   xmlns:cc="http://creativecommons.org/ns#"
   xmlns:rdf="http://www.w3.org/1999/02/22-rdf-syntax-ns#"
   xmlns:svg="http://www.w3.org/2000/svg"
   xmlns="http://www.w3.org/2000/svg"
   xmlns:sodipodi="http://sodipodi.sourceforge.net/DTD/sodipodi-0.dtd"
   xmlns:inkscape="http://www.inkscape.org/namespaces/inkscape"
   width="24"
   height="64"
   id="svg2"
   version="1.1"
   inkscape:version="0.91 r13725"
   sodipodi:docname="10D.svg">
  <metadata
     id="metadata16">
    <rdf:RDF>
      <cc:Work
         rdf:about="">
        <dc:format>image/svg+xml</dc:format>
        <dc:type
           rdf:resource="http://purl.org/dc/dcmitype/StillImage" />
        <dc:title></dc:title>
      </cc:Work>
    </rdf:RDF>
  </metadata>
  <defs
     id="defs14" />
  <sodipodi:namedview
     pagecolor="#ffffff"
     bordercolor="#666666"
     borderopacity="1"
     objecttolerance="10"
     gridtolerance="10"
     guidetolerance="10"
     inkscape:pageopacity="0"
     inkscape:pageshadow="2"
     inkscape:window-width="1680"
     inkscape:window-height="1024"
     id="namedview12"
     showgrid="false"
     fit-margin-top="0"
     fit-margin-left="0"
     fit-margin-right="0"
     fit-margin-bottom="0"
     inkscape:zoom="4.2678497"
     inkscape:cx="-32.120461"
     inkscape:cy="32.398983"
     inkscape:window-x="0"
     inkscape:window-y="0"
     inkscape:window-maximized="1"
     inkscape:current-layer="svg2" />
  <rect
     style="opacity:1;fill:#ffffff;fill-opacity:1;fill-rule:evenodd;stroke:none;stroke-width:1;stroke-linecap:round;stroke-linejoin:round;stroke-miterlimit:4;stroke-dasharray:none;stroke-opacity:1"
     id="rect4147"
     width="24"
     height="64"
     x="0"
     y="0" />
  <g
     style="fill:#d40000"
     id="g8"
     transform="translate(-6709.7545,2422.585)">
    <path
       inkscape:connector-curvature="0"
       id="path10"
       d="m 6712.477,-2372.264 c 4.064,-3.966 6.733,-8.29 9.286,-12.449 2.238,4.576 5.45,8.58 8.924,12.449 -3.716,3.838 -6.597,7.941 -8.913,12.256 -2.568,-4.423 -5.27,-8.427 -9.297,-12.256 z m -0.463,-17.392 0,-31.506 3.11,0 0,31.506 z m 12.33,-31.506 c -2.995,0 -5.402,2.686 -5.402,6.022 l 0,19.462 c 0,3.336 2.407,6.022 5.402,6.022 l 1.745,0 c 2.994,0 5.406,-2.686 5.406,-6.022 l 0,-19.462 c 0,-3.336 -2.412,-6.022 -5.406,-6.022 z m 0.9,2.978 c 1.77,0 3.192,1.337 3.192,3.001 l 0,19.723 c 0,1.665 -1.423,3.006 -3.191,3.006 -1.769,0 -3.192,-1.341 -3.192,-3.006 l 0,-19.723 c 0,-1.664 1.423,-3.001 3.192,-3.001 z"
       sodipodi:nodetypes="ccccccccccssssssssscssssscc" />
  </g>
</svg>
