<?xml version="1.0" encoding="UTF-8" standalone="no"?>
<svg
   xmlns:dc="http://purl.org/dc/elements/1.1/"
   xmlns:cc="http://creativecommons.org/ns#"
   xmlns:rdf="http://www.w3.org/1999/02/22-rdf-syntax-ns#"
   xmlns:svg="http://www.w3.org/2000/svg"
   xmlns="http://www.w3.org/2000/svg"
   xmlns:sodipodi="http://sodipodi.sourceforge.net/DTD/sodipodi-0.dtd"
   xmlns:inkscape="http://www.inkscape.org/namespaces/inkscape"
   width="24"
   height="64"
   id="svg2"
   version="1.1"
   inkscape:version="0.91 r13725"
   sodipodi:docname="10S.svg">
  <metadata
     id="metadata16">
    <rdf:RDF>
      <cc:Work
         rdf:about="">
        <dc:format>image/svg+xml</dc:format>
        <dc:type
           rdf:resource="http://purl.org/dc/dcmitype/StillImage" />
        <dc:title></dc:title>
      </cc:Work>
    </rdf:RDF>
  </metadata>
  <defs
     id="defs14" />
  <sodipodi:namedview
     pagecolor="#ffffff"
     bordercolor="#666666"
     borderopacity="1"
     objecttolerance="10"
     gridtolerance="10"
     guidetolerance="10"
     inkscape:pageopacity="0"
     inkscape:pageshadow="2"
     inkscape:window-width="1680"
     inkscape:window-height="1024"
     id="namedview12"
     showgrid="false"
     fit-margin-top="0"
     fit-margin-left="0"
     fit-margin-right="0"
     fit-margin-bottom="0"
     inkscape:zoom="12.071302"
     inkscape:cx="-23.57592"
     inkscape:cy="27.797436"
     inkscape:window-x="0"
     inkscape:window-y="0"
     inkscape:window-maximized="1"
     inkscape:current-layer="svg2"
     inkscape:snap-bbox="true"
     inkscape:bbox-paths="true"
     inkscape:bbox-nodes="true"
     inkscape:snap-bbox-edge-midpoints="true"
     inkscape:snap-bbox-midpoints="true" />
  <rect
     style="opacity:1;fill:#ffffff;fill-opacity:1;fill-rule:evenodd;stroke:none;stroke-width:1;stroke-linecap:round;stroke-linejoin:round;stroke-miterlimit:4;stroke-dasharray:none;stroke-opacity:1"
     id="rect4147"
     width="24"
     height="64"
     x="0"
     y="0" />
  <path
     style="fill:#000000;fill-opacity:1"
     sodipodi:nodetypes="cccccssssssssscssssscc"
     d="m 2.000002,34 0,-31.9999999 3.192855,0 0,31.9999999 z M 14.65849,2.0000001 c -3.074791,0 -5.545917,2.7281153 -5.545917,6.1164222 l 0,19.7671557 C 9.112573,31.271885 11.583699,34 14.65849,34 l 1.791489,0 c 3.073764,0 5.550023,-2.728115 5.550023,-6.116422 l 0,-19.7671557 c 0,-3.3883069 -2.476259,-6.1164222 -5.550023,-6.1164222 z m 0.923977,3.0246937 c 1.817155,0 3.277039,1.3579636 3.277039,3.0480543 l 0,20.0322479 c 0,1.691106 -1.46091,3.053133 -3.276012,3.053133 -1.816129,0 -3.27704,-1.362027 -3.27704,-3.053133 l 0,-20.0322479 c 0,-1.6900907 1.460911,-3.0480543 3.27704,-3.0480543 z"
     id="path10"
     inkscape:connector-curvature="0" />
  <path
     d="m 11.108795,55.016508 c 0.0063,-0.847876 -0.664156,-0.863779 -0.656623,-0.24524 -0.05608,3.109022 -2.6850831,4.639887 -4.5951071,4.276631 -2.944552,-0.559951 -3.884498,-3.48274 -3.856459,-5.204022 0.08663,-5.313668 5.435451,-9.231645 10.2615701,-16.043116 3.536306,6.147733 9.373515,10.977199 9.718777,15.729662 0.45951,6.31848 -7.53673,8.675461 -8.678392,1.310735 -0.07366,-0.520192 -0.686336,-0.753296 -0.638627,-0.0272 0.173676,2.018416 -0.07324,2.859178 2.203809,7.834281 l -5.9518781,0 c 1.3182691,-2.324755 2.1033721,-5.178911 2.1929301,-7.631727 z"
     id="path10-6"
     inkscape:connector-curvature="0"
     sodipodi:nodetypes="ccccccccccc" />
</svg>
