<?xml version="1.0" encoding="UTF-8" standalone="no"?>
<svg
   xmlns:dc="http://purl.org/dc/elements/1.1/"
   xmlns:cc="http://creativecommons.org/ns#"
   xmlns:rdf="http://www.w3.org/1999/02/22-rdf-syntax-ns#"
   xmlns:svg="http://www.w3.org/2000/svg"
   xmlns="http://www.w3.org/2000/svg"
   xmlns:sodipodi="http://sodipodi.sourceforge.net/DTD/sodipodi-0.dtd"
   xmlns:inkscape="http://www.inkscape.org/namespaces/inkscape"
   width="24"
   height="64"
   id="svg2"
   version="1.1"
   inkscape:version="0.91 r13725"
   sodipodi:docname="AD.svg">
  <metadata
     id="metadata16">
    <rdf:RDF>
      <cc:Work
         rdf:about="">
        <dc:format>image/svg+xml</dc:format>
        <dc:type
           rdf:resource="http://purl.org/dc/dcmitype/StillImage" />
        <dc:title></dc:title>
      </cc:Work>
    </rdf:RDF>
  </metadata>
  <defs
     id="defs14" />
  <sodipodi:namedview
     pagecolor="#ffffff"
     bordercolor="#666666"
     borderopacity="1"
     objecttolerance="10"
     gridtolerance="10"
     guidetolerance="10"
     inkscape:pageopacity="0"
     inkscape:pageshadow="2"
     inkscape:window-width="1920"
     inkscape:window-height="1027"
     id="namedview12"
     showgrid="false"
     fit-margin-top="0"
     fit-margin-left="0"
     fit-margin-right="0"
     fit-margin-bottom="0"
     inkscape:zoom="4.2678497"
     inkscape:cx="-64.284594"
     inkscape:cy="86.596172"
     inkscape:window-x="1680"
     inkscape:window-y="0"
     inkscape:window-maximized="1"
     inkscape:current-layer="svg2"
     inkscape:snap-bbox="true"
     inkscape:bbox-paths="true"
     inkscape:bbox-nodes="true"
     inkscape:snap-bbox-edge-midpoints="true"
     inkscape:snap-bbox-midpoints="true" />
  <rect
     style="opacity:1;fill:#ffffff;fill-opacity:1;fill-rule:evenodd;stroke:none;stroke-width:1;stroke-linecap:round;stroke-linejoin:round;stroke-miterlimit:4;stroke-dasharray:none;stroke-opacity:1"
     id="rect4147"
     width="24"
     height="64"
     x="0"
     y="0" />
  <g
     style="fill:#d40000"
     id="g8"
     transform="translate(-6709.7545,2422.585)">
    <path
       inkscape:connector-curvature="0"
       id="path10"
       d="m 6712.477,-2372.264 c 4.064,-3.966 6.733,-8.29 9.286,-12.449 2.238,4.576 5.45,8.58 8.924,12.449 -3.716,3.838 -6.597,7.941 -8.913,12.256 -2.568,-4.423 -5.27,-8.427 -9.297,-12.256 z"
       sodipodi:nodetypes="ccccc" />
  </g>
  <path
     d="m 2.2595,32.929 0,-2.69399 2.598901,0 5.534877,-28.81201 3.14897,0 6.0996,28.81201 2.098662,0 0,2.69399 -7.149908,0 0,-2.69399 1.931588,0 -0.7699,-4.415506 -7.2163465,0 -0.5569073,4.415506 1.9315891,0 0,2.69399 z M 15.134807,22.67668 11.999516,7.2529238 9.0625629,22.67668 Z"
     id="path10-3"
     inkscape:connector-curvature="0"
     sodipodi:nodetypes="ccccccccccccccccccccc"
     style="fill:#d40000;fill-opacity:1" />
</svg>
