<?xml version="1.0" encoding="UTF-8" standalone="no"?>
<svg
   xmlns:dc="http://purl.org/dc/elements/1.1/"
   xmlns:cc="http://creativecommons.org/ns#"
   xmlns:rdf="http://www.w3.org/1999/02/22-rdf-syntax-ns#"
   xmlns:svg="http://www.w3.org/2000/svg"
   xmlns="http://www.w3.org/2000/svg"
   xmlns:sodipodi="http://sodipodi.sourceforge.net/DTD/sodipodi-0.dtd"
   xmlns:inkscape="http://www.inkscape.org/namespaces/inkscape"
   width="24"
   height="64"
   id="svg2"
   version="1.1"
   inkscape:version="0.91 r13725"
   sodipodi:docname="AS.svg">
  <metadata
     id="metadata16">
    <rdf:RDF>
      <cc:Work
         rdf:about="">
        <dc:format>image/svg+xml</dc:format>
        <dc:type
           rdf:resource="http://purl.org/dc/dcmitype/StillImage" />
        <dc:title></dc:title>
      </cc:Work>
    </rdf:RDF>
  </metadata>
  <defs
     id="defs14" />
  <sodipodi:namedview
     pagecolor="#ffffff"
     bordercolor="#666666"
     borderopacity="1"
     objecttolerance="10"
     gridtolerance="10"
     guidetolerance="10"
     inkscape:pageopacity="0"
     inkscape:pageshadow="2"
     inkscape:window-width="1920"
     inkscape:window-height="1027"
     id="namedview12"
     showgrid="false"
     fit-margin-top="0"
     fit-margin-left="0"
     fit-margin-right="0"
     fit-margin-bottom="0"
     inkscape:zoom="8.5356995"
     inkscape:cx="-41.609209"
     inkscape:cy="41.090365"
     inkscape:window-x="1680"
     inkscape:window-y="0"
     inkscape:window-maximized="1"
     inkscape:current-layer="svg2"
     inkscape:snap-bbox="true"
     inkscape:bbox-paths="true"
     inkscape:bbox-nodes="true"
     inkscape:snap-bbox-edge-midpoints="true"
     inkscape:snap-bbox-midpoints="true" />
  <rect
     style="opacity:1;fill:#ffffff;fill-opacity:1;fill-rule:evenodd;stroke:none;stroke-width:1;stroke-linecap:round;stroke-linejoin:round;stroke-miterlimit:4;stroke-dasharray:none;stroke-opacity:1"
     id="rect4147"
     width="24"
     height="64"
     x="0"
     y="0" />
  <path
     d="m 2,34 0,-2.736231 2.6681378,0 L 10.350468,2 13.58333,2 19.845428,31.263769 22,31.263769 22,34 l -7.340387,0 0,-2.736231 1.983047,0 -0.790411,-4.484739 -7.4085959,0 -0.5717438,4.484739 1.9830487,0 0,2.736231 z M 15.218316,23.586928 11.999498,7.9213344 8.984302,23.586928 Z"
     id="path10-3"
     inkscape:connector-curvature="0"
     sodipodi:nodetypes="ccccccccccccccccccccc"
     style="fill:#000000;fill-opacity:1" />
  <path
     d="m 11.108795,55.016508 c 0.0063,-0.847876 -0.664156,-0.863779 -0.656623,-0.24524 -0.05608,3.109022 -2.6850822,4.639887 -4.5951065,4.276631 -2.9445516,-0.559951 -3.8844978,-3.48274 -3.8564594,-5.204022 0.08663,-5.313668 5.4354512,-9.231645 10.2615699,-16.043116 3.536306,6.147733 9.373515,10.977199 9.718777,15.729662 0.45951,6.31848 -7.53673,8.675461 -8.678392,1.310735 -0.07366,-0.520192 -0.686336,-0.753296 -0.638627,-0.0272 0.173676,2.018416 -0.07324,2.859178 2.203809,7.834281 l -5.9518773,0 c 1.3182683,-2.324755 2.1033713,-5.178911 2.1929293,-7.631727 z"
     id="path10"
     inkscape:connector-curvature="0"
     sodipodi:nodetypes="ccccccccccc" />
</svg>
