<?xml version="1.0" encoding="UTF-8" standalone="no"?>
<svg id="svg2" xmlns:rdf="http://www.w3.org/1999/02/22-rdf-syntax-ns#" xmlns="http://www.w3.org/2000/svg" viewBox="0 0 64 64" version="1.1" xmlns:cc="http://creativecommons.org/ns#" xmlns:dc="http://purl.org/dc/elements/1.1/">
 <circle id="path4214" stroke-linejoin="round" fill-rule="evenodd" cx="32" stroke-linecap="round" stroke="#fff" cy="32" r="31.5" fill="#fff"/>
 <path id="path8" d="m24.736 59.811c2.9233-5.8639 5.0526-11.88 5.4303-18.315 0.346-2.368-1.091-2.407-1.308-0.739-4.14 15.832-26.159 11.545-25.402-3.348 0.6144-12.078 12.61-14.677 18.868-10.727 2.471 1.454 2.332 0.583 0.983-0.926-9.296-10.369-3.665-23.722 8.895-23.966 13.586 0.8057 17.111 15.098 8.778 23.505-1.0357 1.0093-3.3336 4.2555 0.12489 1.9861 8.4146-5.9787 20.092 0.44982 19.854 9.6666-0.43966 16.998-21.161 18.265-25.591 4.0677-0.42647-1.5739-1.6551-2.3639-1.3149 0.3097 0.61432 4.8394 1.8846 12.137 5.5207 18.485z"/>
</svg>
