<?xml version="1.0" encoding="UTF-8" standalone="no"?>
<svg id="svg2" xmlns:rdf="http://www.w3.org/1999/02/22-rdf-syntax-ns#" xmlns="http://www.w3.org/2000/svg" viewBox="0 0 56.653 57.141" version="1.1" xmlns:cc="http://creativecommons.org/ns#" xmlns:dc="http://purl.org/dc/elements/1.1/">
 <path id="path8" d="m20.976 57.141c2.879-5.775 4.976-11.7 5.348-18.037 0.341-2.332-1.075-2.37-1.288-0.728-4.077 15.592-25.763 11.37-25.017-3.297 0.6048-11.895 12.419-14.454 18.582-10.564 2.433 1.432 2.296 0.574 0.968-0.912-9.155-10.212-3.61-23.362 8.76-23.603 13.38 0.794 16.852 14.87 8.645 23.149-1.02 0.994-3.283 4.191 0.123 1.956 8.287-5.888 19.787 0.443 19.553 9.52-0.433 16.74-20.84 17.988-25.203 4.006-0.42-1.55-1.63-2.328-1.295 0.305 0.605 4.766 1.856 11.953 5.437 18.205z"/>
</svg>
