<?xml version="1.0" encoding="UTF-8" standalone="no"?>
<svg
   xmlns:dc="http://purl.org/dc/elements/1.1/"
   xmlns:cc="http://creativecommons.org/ns#"
   xmlns:rdf="http://www.w3.org/1999/02/22-rdf-syntax-ns#"
   xmlns:svg="http://www.w3.org/2000/svg"
   xmlns="http://www.w3.org/2000/svg"
   xmlns:sodipodi="http://sodipodi.sourceforge.net/DTD/sodipodi-0.dtd"
   xmlns:inkscape="http://www.inkscape.org/namespaces/inkscape"
   width="24"
   height="64"
   id="svg2"
   version="1.1"
   inkscape:version="0.91 r13725"
   sodipodi:docname="JD.svg">
  <metadata
     id="metadata16">
    <rdf:RDF>
      <cc:Work
         rdf:about="">
        <dc:format>image/svg+xml</dc:format>
        <dc:type
           rdf:resource="http://purl.org/dc/dcmitype/StillImage" />
        <dc:title></dc:title>
      </cc:Work>
    </rdf:RDF>
  </metadata>
  <defs
     id="defs14" />
  <sodipodi:namedview
     pagecolor="#ffffff"
     bordercolor="#666666"
     borderopacity="1"
     objecttolerance="10"
     gridtolerance="10"
     guidetolerance="10"
     inkscape:pageopacity="0"
     inkscape:pageshadow="2"
     inkscape:window-width="1920"
     inkscape:window-height="1027"
     id="namedview12"
     showgrid="false"
     fit-margin-top="0"
     fit-margin-left="0"
     fit-margin-right="0"
     fit-margin-bottom="0"
     inkscape:zoom="4.2678497"
     inkscape:cx="-47.395617"
     inkscape:cy="45.460361"
     inkscape:window-x="1680"
     inkscape:window-y="0"
     inkscape:window-maximized="1"
     inkscape:current-layer="svg2"
     inkscape:snap-bbox="true"
     inkscape:bbox-paths="true"
     inkscape:bbox-nodes="true"
     inkscape:snap-bbox-edge-midpoints="true"
     inkscape:snap-bbox-midpoints="true" />
  <rect
     style="opacity:1;fill:#ffffff;fill-opacity:1;fill-rule:evenodd;stroke:none;stroke-width:1;stroke-linecap:round;stroke-linejoin:round;stroke-miterlimit:4;stroke-dasharray:none;stroke-opacity:1"
     id="rect4147"
     width="24"
     height="64"
     x="0"
     y="0" />
  <path
     style="fill:#d40000"
     sodipodi:nodetypes="ccccc"
     d="m 2.7225,50.321 c 4.064,-3.966 6.733,-8.29 9.286,-12.449 2.238,4.576 5.45,8.58 8.924,12.449 -3.716,3.838 -6.597,7.941 -8.913,12.256 -2.568,-4.423 -5.27,-8.427 -9.297,-12.256 z"
     id="path10"
     inkscape:connector-curvature="0" />
  <path
     d="m 21.426637,1.423 0,3.277046 -2.949341,0 0,17.678155 c 0,0 -0.01506,4.254509 -0.209053,4.790325 -2.274157,7.750026 -14.8663021,7.211385 -15.4934611,0.297572 -0.265553,-1.1771 -0.192101,-5.087897 -0.192101,-5.087897 l 3.331662,0 c 0,0 0.02354,1.246783 0.06875,2.168689 -0.431289,7.340394 8.4798271,5.815815 8.9224181,0.885179 0.184569,-0.884237 0.203403,-3.053868 0.203403,-3.053868 l 0,-17.678155 -3.440899,0 0,-3.277046 z"
     id="path12"
     inkscape:connector-curvature="0"
     style="fill:#d40000;fill-opacity:1"
     sodipodi:nodetypes="ccccccccccccccc" />
</svg>
