<?xml version="1.0" encoding="UTF-8" standalone="no"?>
<svg
   xmlns:dc="http://purl.org/dc/elements/1.1/"
   xmlns:cc="http://creativecommons.org/ns#"
   xmlns:rdf="http://www.w3.org/1999/02/22-rdf-syntax-ns#"
   xmlns:svg="http://www.w3.org/2000/svg"
   xmlns="http://www.w3.org/2000/svg"
   xmlns:sodipodi="http://sodipodi.sourceforge.net/DTD/sodipodi-0.dtd"
   xmlns:inkscape="http://www.inkscape.org/namespaces/inkscape"
   width="24"
   height="64"
   id="svg2"
   version="1.1"
   inkscape:version="0.91 r13725"
   sodipodi:docname="JH.svg">
  <metadata
     id="metadata16">
    <rdf:RDF>
      <cc:Work
         rdf:about="">
        <dc:format>image/svg+xml</dc:format>
        <dc:type
           rdf:resource="http://purl.org/dc/dcmitype/StillImage" />
        <dc:title></dc:title>
      </cc:Work>
    </rdf:RDF>
  </metadata>
  <defs
     id="defs14" />
  <sodipodi:namedview
     pagecolor="#ffffff"
     bordercolor="#666666"
     borderopacity="1"
     objecttolerance="10"
     gridtolerance="10"
     guidetolerance="10"
     inkscape:pageopacity="0"
     inkscape:pageshadow="2"
     inkscape:window-width="1680"
     inkscape:window-height="1024"
     id="namedview12"
     showgrid="false"
     fit-margin-top="0"
     fit-margin-left="0"
     fit-margin-right="0"
     fit-margin-bottom="0"
     inkscape:zoom="8.5356995"
     inkscape:cx="-30.898016"
     inkscape:cy="30.522619"
     inkscape:window-x="0"
     inkscape:window-y="0"
     inkscape:window-maximized="1"
     inkscape:current-layer="svg2"
     inkscape:snap-bbox="true"
     inkscape:bbox-paths="true"
     inkscape:bbox-nodes="true"
     inkscape:snap-bbox-edge-midpoints="true"
     inkscape:snap-bbox-midpoints="false" />
  <rect
     style="opacity:1;fill:#ffffff;fill-opacity:1;fill-rule:evenodd;stroke:none;stroke-width:1;stroke-linecap:round;stroke-linejoin:round;stroke-miterlimit:4;stroke-dasharray:none;stroke-opacity:1"
     id="rect4147"
     width="24"
     height="64"
     x="0"
     y="0" />
  <path
     d="m 22.000002,2.0000004 0,3.3403431 -3.128731,0 0,18.0196135 c 0,0 -0.01598,4.336686 -0.221768,4.882851 -2.41248,7.89972 -15.7705261,7.350675 -16.4358311,0.30332 -0.281705,-1.199836 -0.203785,-5.186171 -0.203785,-5.186171 l 3.534306,0 c 0,0 0.02497,1.270865 0.07293,2.210578 -0.457521,7.482176 8.9956021,5.928149 9.4651131,0.902276 0.195795,-0.901316 0.215775,-3.112854 0.215775,-3.112854 l 0,-18.0196135 -3.650187,0 0,-3.3403431 z"
     id="path12"
     inkscape:connector-curvature="0"
     style="fill:#d40000;fill-opacity:1"
     sodipodi:nodetypes="ccccccccccccccc" />
  <path
     d="m 6.8898323,38.03325 c 3.0296999,-0.201018 4.6090117,2.38678 4.9173247,4.426228 0.183631,0.324005 0.284141,0.232402 0.354964,-0.01824 0.148432,-2.618333 2.491529,-4.75829 4.661597,-4.465668 3.531822,0.0458 5.678566,3.976267 5.075086,7.302405 -0.737492,4.063632 -2.926221,6.510207 -4.583565,9.03015 -1.874901,2.609002 -4.399086,6.378314 -5.212066,8.192147 0,0 -2.5648974,-3.903748 -5.9020624,-8.494523 C 3.9695485,50.93619 2.183706,47.609627 2.017463,44.745747 1.827471,41.473469 3.170563,38.540462 6.8898323,38.03325 Z"
     id="path12-3"
     inkscape:connector-curvature="0"
     style="fill:#d40000"
     sodipodi:nodetypes="cccccccccc" />
</svg>
