<?xml version="1.0" encoding="UTF-8" standalone="no"?>
<svg
   xmlns:dc="http://purl.org/dc/elements/1.1/"
   xmlns:cc="http://creativecommons.org/ns#"
   xmlns:rdf="http://www.w3.org/1999/02/22-rdf-syntax-ns#"
   xmlns:svg="http://www.w3.org/2000/svg"
   xmlns="http://www.w3.org/2000/svg"
   xmlns:sodipodi="http://sodipodi.sourceforge.net/DTD/sodipodi-0.dtd"
   xmlns:inkscape="http://www.inkscape.org/namespaces/inkscape"
   width="24"
   height="64"
   id="svg2"
   version="1.1"
   inkscape:version="0.91 r13725"
   sodipodi:docname="KH.svg">
  <metadata
     id="metadata16">
    <rdf:RDF>
      <cc:Work
         rdf:about="">
        <dc:format>image/svg+xml</dc:format>
        <dc:type
           rdf:resource="http://purl.org/dc/dcmitype/StillImage" />
        <dc:title></dc:title>
      </cc:Work>
    </rdf:RDF>
  </metadata>
  <defs
     id="defs14" />
  <sodipodi:namedview
     pagecolor="#ffffff"
     bordercolor="#666666"
     borderopacity="1"
     objecttolerance="10"
     gridtolerance="10"
     guidetolerance="10"
     inkscape:pageopacity="0"
     inkscape:pageshadow="2"
     inkscape:window-width="1680"
     inkscape:window-height="1024"
     id="namedview12"
     showgrid="false"
     fit-margin-top="0"
     fit-margin-left="0"
     fit-margin-right="0"
     fit-margin-bottom="0"
     inkscape:zoom="8.5356995"
     inkscape:cx="-42.683717"
     inkscape:cy="39.351568"
     inkscape:window-x="0"
     inkscape:window-y="0"
     inkscape:window-maximized="1"
     inkscape:current-layer="svg2"
     inkscape:snap-bbox="true"
     inkscape:bbox-paths="true"
     inkscape:bbox-nodes="true"
     inkscape:snap-bbox-edge-midpoints="true"
     inkscape:snap-bbox-midpoints="true" />
  <rect
     style="opacity:1;fill:#ffffff;fill-opacity:1;fill-rule:evenodd;stroke:none;stroke-width:1;stroke-linecap:round;stroke-linejoin:round;stroke-miterlimit:4;stroke-dasharray:none;stroke-opacity:1"
     id="rect4147"
     width="24"
     height="64"
     x="0"
     y="0" />
  <path
     d="m 2.000927,34 0,-3.410267 2.9393761,0 0,-25.629461 -2.940303,0 0,-2.960272 8.1544279,0 0,2.960272 -2.1264354,0 0.1974416,12.322361 7.3971068,-12.322361 -2.88376,0 L 12.772157,2 l 9.226916,0 0,2.960272 -2.632554,0 -5.888949,10.138985 5.889876,15.490476 2.632554,0 L 22,34 l -9.225989,0 0,-3.195359 3.460324,-0.05953 -4.903595,-12.065077 -3.3027424,4.951947 0,7.017278 2.4045234,0 0,3.34973 z"
     id="path12"
     inkscape:connector-curvature="0"
     style="fill:#d40000;fill-opacity:1"
     sodipodi:nodetypes="ccccccccccccccccccccccccccccc" />
  <path
     d="m 6.8898326,38.03325 c 3.0296999,-0.201018 4.6090124,2.38678 4.9173254,4.426228 0.183631,0.324005 0.28414,0.232402 0.354963,-0.01824 0.148432,-2.618333 2.491529,-4.75829 4.661597,-4.465668 3.531822,0.0458 5.678566,3.976267 5.075086,7.302405 -0.737492,4.063631 -2.926221,6.510206 -4.583565,9.030149 -1.874901,2.609002 -4.399086,6.378314 -5.212066,8.192147 0,0 -2.5648971,-3.903748 -5.9020621,-8.494523 C 3.9695488,50.936189 2.1837067,47.609627 2.0174631,44.745747 1.8274712,41.473469 3.1705635,38.540462 6.8898326,38.03325 Z"
     id="path12-6"
     inkscape:connector-curvature="0"
     style="fill:#d40000"
     sodipodi:nodetypes="cccccccccc" />
</svg>
