<?xml version="1.0" encoding="UTF-8" standalone="no"?>
<svg
   xmlns:dc="http://purl.org/dc/elements/1.1/"
   xmlns:cc="http://creativecommons.org/ns#"
   xmlns:rdf="http://www.w3.org/1999/02/22-rdf-syntax-ns#"
   xmlns:svg="http://www.w3.org/2000/svg"
   xmlns="http://www.w3.org/2000/svg"
   xmlns:sodipodi="http://sodipodi.sourceforge.net/DTD/sodipodi-0.dtd"
   xmlns:inkscape="http://www.inkscape.org/namespaces/inkscape"
   width="24"
   height="64"
   id="svg2"
   version="1.1"
   inkscape:version="0.91 r13725"
   sodipodi:docname="KS.svg">
  <metadata
     id="metadata16">
    <rdf:RDF>
      <cc:Work
         rdf:about="">
        <dc:format>image/svg+xml</dc:format>
        <dc:type
           rdf:resource="http://purl.org/dc/dcmitype/StillImage" />
        <dc:title></dc:title>
      </cc:Work>
    </rdf:RDF>
  </metadata>
  <defs
     id="defs14" />
  <sodipodi:namedview
     pagecolor="#ffffff"
     bordercolor="#666666"
     borderopacity="1"
     objecttolerance="10"
     gridtolerance="10"
     guidetolerance="10"
     inkscape:pageopacity="0"
     inkscape:pageshadow="2"
     inkscape:window-width="1920"
     inkscape:window-height="1027"
     id="namedview12"
     showgrid="false"
     fit-margin-top="0"
     fit-margin-left="0"
     fit-margin-right="0"
     fit-margin-bottom="0"
     inkscape:zoom="8.5356995"
     inkscape:cx="-62.424337"
     inkscape:cy="39.117258"
     inkscape:window-x="1680"
     inkscape:window-y="0"
     inkscape:window-maximized="1"
     inkscape:current-layer="svg2"
     inkscape:snap-bbox="true"
     inkscape:bbox-paths="true"
     inkscape:bbox-nodes="true"
     inkscape:snap-bbox-edge-midpoints="true"
     inkscape:snap-bbox-midpoints="true" />
  <rect
     style="opacity:1;fill:#ffffff;fill-opacity:1;fill-rule:evenodd;stroke:none;stroke-width:1;stroke-linecap:round;stroke-linejoin:round;stroke-miterlimit:4;stroke-dasharray:none;stroke-opacity:1"
     id="rect4147"
     width="24"
     height="64"
     x="0"
     y="0" />
  <path
     d="m 2.000927,34 0,-3.410267 2.9393761,0 0,-25.629461 -2.940303,0 0,-2.960272 8.1544279,0 0,2.960272 -2.1264354,0 0.1974416,12.322361 7.3971068,-12.322361 -2.88376,0 L 12.772157,2 l 9.226916,0 0,2.960272 -2.632554,0 -5.888949,10.138985 5.889876,15.490476 2.632554,0 L 22,34 l -9.225989,0 0,-3.195359 3.460324,-0.05953 -4.903595,-12.065077 -3.3027424,4.951947 0,7.017278 2.4045234,0 0,3.34973 z"
     id="path12"
     inkscape:connector-curvature="0"
     style="fill:#000000;fill-opacity:1"
     sodipodi:nodetypes="ccccccccccccccccccccccccccccc" />
  <path
     d="m 11.108795,55.016508 c 0.0063,-0.847876 -0.664156,-0.863779 -0.656623,-0.24524 -0.05608,3.109022 -2.6850821,4.639887 -4.5951071,4.276631 -2.944551,-0.559951 -3.884498,-3.48274 -3.856459,-5.204022 0.08663,-5.313668 5.435451,-9.231645 10.2615701,-16.043116 3.536306,6.147733 9.373515,10.977199 9.718777,15.729662 0.45951,6.31848 -7.53673,8.675461 -8.678392,1.310735 -0.07366,-0.520192 -0.686336,-0.753296 -0.638627,-0.0272 0.173676,2.018416 -0.07324,2.859178 2.203809,7.834281 l -5.9518781,0 c 1.3182691,-2.324755 2.1033721,-5.178911 2.1929301,-7.631727 z"
     id="path10"
     inkscape:connector-curvature="0"
     sodipodi:nodetypes="ccccccccccc" />
</svg>
