<?xml version="1.0" encoding="UTF-8" standalone="no"?>
<svg
   xmlns:dc="http://purl.org/dc/elements/1.1/"
   xmlns:cc="http://creativecommons.org/ns#"
   xmlns:rdf="http://www.w3.org/1999/02/22-rdf-syntax-ns#"
   xmlns:svg="http://www.w3.org/2000/svg"
   xmlns="http://www.w3.org/2000/svg"
   xmlns:sodipodi="http://sodipodi.sourceforge.net/DTD/sodipodi-0.dtd"
   xmlns:inkscape="http://www.inkscape.org/namespaces/inkscape"
   width="24"
   height="64"
   id="svg2"
   version="1.1"
   inkscape:version="0.91 r13725"
   sodipodi:docname="QD.svg">
  <metadata
     id="metadata16">
    <rdf:RDF>
      <cc:Work
         rdf:about="">
        <dc:format>image/svg+xml</dc:format>
        <dc:type
           rdf:resource="http://purl.org/dc/dcmitype/StillImage" />
        <dc:title />
      </cc:Work>
    </rdf:RDF>
  </metadata>
  <defs
     id="defs14" />
  <sodipodi:namedview
     pagecolor="#ffffff"
     bordercolor="#666666"
     borderopacity="1"
     objecttolerance="10"
     gridtolerance="10"
     guidetolerance="10"
     inkscape:pageopacity="0"
     inkscape:pageshadow="2"
     inkscape:window-width="1920"
     inkscape:window-height="1027"
     id="namedview12"
     showgrid="false"
     fit-margin-top="0"
     fit-margin-left="0"
     fit-margin-right="0"
     fit-margin-bottom="0"
     inkscape:zoom="3.0178255"
     inkscape:cx="-133.7241"
     inkscape:cy="87.354087"
     inkscape:window-x="1680"
     inkscape:window-y="0"
     inkscape:window-maximized="1"
     inkscape:current-layer="svg2"
     inkscape:snap-bbox="true"
     inkscape:bbox-paths="true"
     inkscape:bbox-nodes="true"
     inkscape:snap-bbox-edge-midpoints="true"
     inkscape:snap-bbox-midpoints="true" />
  <rect
     style="opacity:1;fill:#ffffff;fill-opacity:1;fill-rule:evenodd;stroke:none;stroke-width:1;stroke-linecap:round;stroke-linejoin:round;stroke-miterlimit:4;stroke-dasharray:none;stroke-opacity:1"
     id="rect4147"
     width="24"
     height="64"
     x="0"
     y="0" />
  <g
     style="fill:#d40000"
     id="g8"
     transform="translate(-6709.7545,2422.585)">
    <path
       inkscape:connector-curvature="0"
       id="path10"
       d="m 6712.477,-2372.264 c 4.064,-3.966 6.733,-8.29 9.286,-12.449 2.238,4.576 5.45,8.58 8.924,12.449 -3.716,3.838 -6.597,7.941 -8.913,12.256 -2.568,-4.423 -5.27,-8.427 -9.297,-12.256 z"
       sodipodi:nodetypes="ccccc" />
  </g>
  <path
     d="m 2.2595,22.395649 0,-3.469966 2.6099412,0 c 0,0 -0.030096,0.28246 -0.0094,-4.448292 0.029156,-6.6172553 0.3621,-8.6496645 1.6919944,-10.3397536 3.5833784,-4.55211019 10.1576094,-3.15664099 11.8853424,2.5234423 0.131674,0.4321091 0.427937,1.5264114 0.457094,2.9742574 0.07806,3.7664579 0.08464,10.0152039 -0.04138,13.9172799 0.06302,1.530152 -0.485308,3.524214 -0.880326,3.8656 0.189985,1.389857 2.388919,1.669512 3.767721,1.561952 l 0,3.628968 c 0.0066,-0.01964 -1.398553,0.133748 -3.054807,0 -0.697866,-0.05612 -2.309916,-1.376762 -2.309916,-1.376762 0,0 -2.548807,1.742466 -4.838031,1.6957 C 4.0436652,32.773751 4.8760248,23.472181 4.8976568,22.409679 Z m 6.003335,0.91566 c 0,0 0.00564,1.306616 0.085588,2.179252 0.264286,2.883534 2.15661,4.378144 4.042351,3.8656 0.556583,-0.168667 1.067309,-0.460992 1.493546,-0.854866 -1.604526,-2.368182 -3.5119,-4.358503 -5.6214843,-5.190921 z M 15.225499,8.8777433 C 14.425118,4.5285933 10.306583,3.8617235 8.7547267,7.5421333 8.4744519,8.2052618 8.2412032,13.446689 8.2412032,13.446689 l 0.031978,6.192628 c 3.3416648,0.73047 5.1850828,2.862022 7.2730358,5.281646 0,0 0.418531,-11.130083 -0.319777,-16.0432197 z"
     id="path8"
     inkscape:connector-curvature="0"
     style="fill:#d40000"
     sodipodi:nodetypes="ccccccccccccccccccccccccccccc" />
</svg>
