<?xml version="1.0" encoding="UTF-8" standalone="no"?>
<svg
   xmlns:dc="http://purl.org/dc/elements/1.1/"
   xmlns:cc="http://creativecommons.org/ns#"
   xmlns:rdf="http://www.w3.org/1999/02/22-rdf-syntax-ns#"
   xmlns:svg="http://www.w3.org/2000/svg"
   xmlns="http://www.w3.org/2000/svg"
   xmlns:sodipodi="http://sodipodi.sourceforge.net/DTD/sodipodi-0.dtd"
   xmlns:inkscape="http://www.inkscape.org/namespaces/inkscape"
   width="24"
   height="64"
   id="svg2"
   version="1.1"
   inkscape:version="0.91 r13725"
   sodipodi:docname="QS.svg">
  <metadata
     id="metadata16">
    <rdf:RDF>
      <cc:Work
         rdf:about="">
        <dc:format>image/svg+xml</dc:format>
        <dc:type
           rdf:resource="http://purl.org/dc/dcmitype/StillImage" />
        <dc:title />
      </cc:Work>
    </rdf:RDF>
  </metadata>
  <defs
     id="defs14" />
  <sodipodi:namedview
     pagecolor="#ffffff"
     bordercolor="#666666"
     borderopacity="1"
     objecttolerance="10"
     gridtolerance="10"
     guidetolerance="10"
     inkscape:pageopacity="0"
     inkscape:pageshadow="2"
     inkscape:window-width="1920"
     inkscape:window-height="1027"
     id="namedview12"
     showgrid="false"
     fit-margin-top="0"
     fit-margin-left="0"
     fit-margin-right="0"
     fit-margin-bottom="0"
     inkscape:zoom="12.071302"
     inkscape:cx="-23.226186"
     inkscape:cy="5.2332697"
     inkscape:window-x="1680"
     inkscape:window-y="0"
     inkscape:window-maximized="1"
     inkscape:current-layer="svg2"
     inkscape:snap-bbox="true"
     inkscape:bbox-paths="true"
     inkscape:bbox-nodes="true"
     inkscape:snap-bbox-edge-midpoints="true"
     inkscape:snap-bbox-midpoints="true" />
  <rect
     style="opacity:1;fill:#ffffff;fill-opacity:1;fill-rule:evenodd;stroke:none;stroke-width:1;stroke-linecap:round;stroke-linejoin:round;stroke-miterlimit:4;stroke-dasharray:none;stroke-opacity:1"
     id="rect4147"
     width="24"
     height="64"
     x="0"
     y="0" />
  <path
     d="m 2.0000486,23.301492 0,-3.524374 2.679472,0 c 0,0 -0.0309,0.286889 -0.0097,-4.518039 0.02994,-6.7210115 0.371747,-8.7852885 1.737072,-10.5018775 3.6788424,-4.62348498 10.4282154,-3.206135 12.2019764,2.563009 0.135182,0.438885 0.439338,1.550345 0.469272,3.0208935 0.08014,3.825514 0.0869,10.172238 -0.04248,14.135497 0.0647,1.554144 -0.498237,3.579472 -0.903779,3.92621 0.195046,1.41165 2.452562,1.69569 3.868096,1.586443 l 0,3.685869 c 0.0068,-0.01995 -1.435811,0.135845 -3.136189,0 -0.716458,-0.057 -2.371454,-1.398349 -2.371454,-1.398349 0,0 -2.61671,1.769787 -4.96692,1.722287 C 3.831697,33.842318 4.686231,24.394903 4.70844,23.315742 Z m 6.163269,0.930017 c 0,0 0.0057,1.327103 0.08787,2.213422 0.271327,2.928746 2.2140644,4.446791 4.1500424,3.926211 0.571411,-0.171312 1.095743,-0.468221 1.533336,-0.86827 -1.647272,-2.405314 -3.60546,-4.426843 -5.7712454,-5.272313 z M 15.311473,9.5716305 c -0.821704,-4.417343 -5.04996,-5.094669 -6.6431594,-1.356552 -0.287742,0.673527 -0.527205,5.9971375 -0.527205,5.9971375 l 0.03283,6.289726 c 3.4306904,0.741923 5.3232184,2.906897 7.4667964,5.36446 0,0 0.429681,-11.304598 -0.328296,-16.2947715 z"
     id="path8-3"
     inkscape:connector-curvature="0"
     style="fill:#000000;fill-opacity:1"
     sodipodi:nodetypes="ccccccccccccccccccccccccccccc" />
  <path
     d="m 11.108795,55.016508 c 0.0063,-0.847876 -0.664156,-0.863779 -0.656623,-0.24524 -0.05608,3.109022 -2.6850822,4.639887 -4.5951072,4.276631 -2.944551,-0.559951 -3.884497,-3.48274 -3.856459,-5.204022 0.08663,-5.313668 5.435451,-9.231645 10.2615702,-16.043116 3.536306,6.147733 9.373515,10.977199 9.718777,15.729662 0.45951,6.31848 -7.53673,8.675461 -8.678392,1.310735 -0.07366,-0.520192 -0.686336,-0.753296 -0.638627,-0.0272 0.173676,2.018416 -0.07324,2.859178 2.203809,7.834281 l -5.9518772,0 c 1.3182682,-2.324755 2.1033712,-5.178911 2.1929292,-7.631727 z"
     id="path10"
     inkscape:connector-curvature="0"
     sodipodi:nodetypes="ccccccccccc" />
</svg>
