<?xml version="1.0" encoding="UTF-8" standalone="no"?>
<svg id="svg2" xmlns:rdf="http://www.w3.org/1999/02/22-rdf-syntax-ns#" xmlns="http://www.w3.org/2000/svg" viewBox="0 0 64 64" version="1.1" xmlns:cc="http://creativecommons.org/ns#" xmlns:dc="http://purl.org/dc/elements/1.1/">
 <circle id="path4214" stroke-linejoin="round" fill-rule="evenodd" cx="32" stroke-linecap="round" stroke="#fff" cy="32" r="31.5" fill="#fff"/>
 <path id="path10" d="m29.921 42.577c0.01464-1.9777-1.5492-2.0148-1.5316-0.57202-0.1308 7.2518-6.263 10.823-10.718 9.9753-6.868-1.305-9.0601-8.123-8.9947-12.138 0.202-12.394 12.679-21.533 23.936-37.421 8.248 14.34 21.863 25.605 22.669 36.69 1.072 14.738-17.58 20.236-20.243 3.057-0.1718-1.2134-1.6009-1.7571-1.4896-0.06345 0.4051 4.708-0.17083 6.6691 5.1404 18.274h-13.883c3.0749-5.4225 4.9061-12.08 5.115-17.801z"/>
</svg>
